<mxfile host="Electron" modified="2023-05-02T21:19:17.748Z" agent="Mozilla/5.0 (Windows NT 10.0; Win64; x64) AppleWebKit/537.36 (KHTML, like Gecko) draw.io/21.1.2 Chrome/106.0.5249.199 Electron/21.4.3 Safari/537.36" etag="hOAee34HRoBNFSy3X1v-" version="21.1.2" type="device">
  <diagram name="Page-1" id="bSIEf1O-y7jSxpRxmqTI">
    <mxGraphModel dx="1098" dy="820" grid="1" gridSize="10" guides="1" tooltips="1" connect="1" arrows="1" fold="1" page="1" pageScale="1" pageWidth="850" pageHeight="1100" math="0" shadow="0">
      <root>
        <mxCell id="0" />
        <mxCell id="1" parent="0" />
        <mxCell id="82BHHdsbQnVVfxh_A4Up-1" value="" style="rounded=0;whiteSpace=wrap;html=1;fillColor=#eeeeee;strokeColor=#36393d;sketch=1;curveFitting=1;jiggle=2;" vertex="1" parent="1">
          <mxGeometry x="150" y="457" width="660" height="470" as="geometry" />
        </mxCell>
        <mxCell id="j7MEoMGdVYFttDoIU8RG-56" value="" style="group" parent="1" vertex="1" connectable="0">
          <mxGeometry x="28" y="620" width="80" height="95" as="geometry" />
        </mxCell>
        <mxCell id="j7MEoMGdVYFttDoIU8RG-58" value="&lt;font style=&quot;font-size: 18px;&quot;&gt;T1&lt;/font&gt;" style="ellipse;whiteSpace=wrap;html=1;fillColor=#d5e8d4;verticalAlign=top;strokeColor=#82b366;" parent="j7MEoMGdVYFttDoIU8RG-56" vertex="1">
          <mxGeometry width="80" height="95" as="geometry" />
        </mxCell>
        <mxCell id="j7MEoMGdVYFttDoIU8RG-57" value="" style="shape=stencil(lZ1J0hzHDYVPw21FzsNalu+hCFEWw7KooCQPtzdgunp46P4quJPpfH9XZSKBh7E+1O9+//mH3z5+KOn3P758/vvHf3368Y+fP9S/fCjl068/f/zy6Q/7rw/1+w/1u58+f/n4ty+f//z1x6//+7cffKX/1z8+/9P/wr+/4vY6dnVUSf/5+i/pGPl///DXr+t/+fTr4/p69PK0Ph+pwvp0tC7ra3m/fs2jLllPz7Pa0fR5doL1+SjtaX05/+Hl+jmPtWR9n7C+HT3Lenqeaduxn9bXo8D7jnXUKus77P/o55+7r1+03rbjeT/bkWF93/r37UBgP/tQeWjH7LC+HvP5ffuRYP+7ne+W9f8XqJfr21J57vg8rR/9WR7GkWl9OUaX9QPkoe5jPD/PPNKG9ePoQ9bj369Hm0/rF//9pM+/UP7t5/ezPOwjwf748UxZ3+jv1yMlWb/g+U2dddE/6SggEHkdrSpggMbK9gbPT5RNBgcATCMUBWzYIwM00YmmhOCQs91xeenbtr0GmFBWBdAv2LbOANhw711NPctpNsUCu2T3ZGYFVJKMfeypgE6iXVVVGGCB7rW7Np9tR2Zl1NKRAqDAI7VwOw3QSb2MYxUFLALsIBqmwEihlmMmBTR4h96PNhSwQJb6OjXoDTDxkUbQSQboIHwjKA0DLBA+s5pVtnUdhczmDDRknQL/GrBV7xmAFNm8KZUbYKOamUWZnQEGUZ12MokbdUmoNeY40lIAGVsjU6KMDUCiMQM7NXqX4RdWUvri/BF2aWU9aSNsRHhWIEgGGAzYz2rGdGEGg7LqUYcC6OAMoJzTdCsD8lDAoG0t59+7Afq5De/OYScFTDrpHc6B9ZLJUq4KuBDvJYB5yu+7C6S7NNEo2p3OWwF0p03NCFkydlVI85WTnD4AiJz0uK23K/WOn4uqNLtKms/sw8oK6PBILWg+A0yyouOo4sKYXqJfqKfkPABIVZqdrk0BDUSjTvViDDDhkWpT+lMz6lb7v2cAkGjYuYphNwBZILuQolsNgFTa+NKzaNSColGS8lYDECMzEyh8yQDIjHt46YoEKzJjA5D2Nmq+mgI2/MI+T+m23lQr6THV3ZUd1nHu4G39QB49zyN6WL/g7+8gdxMdPt9RkYqFitvYoNAMA5DL57RlKIB8dBdUAWwMUtmmrqkAumyuHpoCGpyCCUHaCiC5s1dMRQEUuGlZr7N7H+DNtGB8DEDcyhR3/IVKsR67KUMBHR7JPIHSFUCsYdz84AcAKYwRHF3bt0K8JMQPDEDSajSjBsCEg4sRxsbhAKOs+Vk0WsGY4WrK0w1A0rqGOlgGoHdY63ziG4ADDjvrfTBA5biz8JLGins3pUqt8SMNNW+NQ5nbSEAAUKx3L6UZdgcbAXY46X7Gjt4BxOIaeSIiY4AhSmByPH+rd2+ATr+w1P1pCyOmvktLAYMsbjChpqkK7dJQUmwAEm+XpeeD6wm1xi5KM/otZvEakE4jewNkdE7WVN1qADrp1dVv7Tdq89bRlch7Of2bd866WFEDUKRodr1AvaBhjx6ZmRjyBMZSG2cAdLC62od+kV8pId9QjwnnYDZOor+9naz3XTxNH6mdOaB3HllvCiBVadIvNs4Am/yloUqgf2tc8/5W7zwyif4aYLNHJmrGPNkKsuQ0uymAlIC5IkOkdWIcxwPSTQHkGTtXD7+wwSiWYOOcQcEu3UNVDwAKmnj65FkZ942s0qOYVQEUts9BGQ/jrZQ+6Uqwxk1Y3jqJz480bknX14CpIY3BSeWS1QKZWsBcRTvzBg8AiuN4qKorgLS3eSi6SxUNu7m1QkMHZ6LtxolbZgBMtWZ1XQ2AyY2uQXUDUJTFFFkKAHJ2XVXKLjFJ7CHgYIBMLs3WMKUBCnkoQXsPpqFmsuZSAN1pM4pzKoByRjMrSbTfpCs6m4b4vAyBg7lCTgxAnuLcSn8MsEA0jM0IqzRXEGPk7QWA2My6GagHAAmfUTgpRRkTd8m8LIlrGIA039rq+NnZ40tvDbUaABMDS5OuHgRnQF4KwATN0EyzueQU8FpNr+jkBP4Kht0EntK6c4dHymjY51BFNjNG4Y3ozmdVaf9CZVO+60kBdHB+5Z/PYVYs1HAjuxXQSPOFIIIBJhHdolpjNqxNMb9Q+NK8VYO9o6HiDhiAUg91q+NnPkumsH0/Ve8DoDGrTAGAwc1AsDwNS1yjK5txcSRWWVSRzYEHZyRRFJnpc3okj/NPBSAjG2rYDUCBwXyT/htgITnJ+bRoD4AJaiZksUwrUFhjqqK09RgLPXMx5/rFdUtNDeLiwswgFStjbiaEZhdHA7zMaiqAAhR2ZMJjVkFP2ktjZIsqXk4vyegKIKEwXi93zQAUiipdpcgAm7N24jmY+aJ6VM8LFgVgqrIrB1gNb3MNUcp1EQ3ImtAxKoSJhKZeqAHo+rep6RYDUG6zJ3UqDUC3uVe1n07nqCwqOAJGVOil3X4GAHk/d8r8AKDgr9cgCWDiIxkvkgCFAYgpmQGXML/TOeIxI2gNTt15MkQeaaOxMi0toajN9HBO9a8MgFysK+ve+WqXIoAukJ2DFPHtwj5iUGSbC0JHyPUbgO6D+/7yCxeR1hTqcivaK6eHUwFUxNdDBakBJhUiplBa3NAkttB7YAByyFrI6u6G0WIPazYFkI2rU9X9Zte7NiU+BqgEyEpMDECeQwk1eXtgSLCMUxAeABgdq2pQ9gUBzWrj9sSoTA75yj25BiHkjffE+FsO1WZ7MV8K9Gcvtg+nXryt31jT2oOS2Vix3YNsbyx8aaEMPnH5aDzlzVxJ00u+nqKy2lnjG4Trc9ggvAiniD2sx4Irjch6LpWk+sWBUblFyLFsLmJpmt/z9SwQ4Xl4vVQS+XqqhgzqmjMHQwMSm1tHRlB0Gz2eoR6Yrado29AU7uaKnaGev8szmNiQsPL16BFqx8XlhVQNxD9Qg9bdyKTKiwtPOrRoqHBzmr680FjUC1UCx9noShWN7VwI6LeuD6WDZgEoJOd9RqKBJm5QrhreNQCpFHOxJfK/B+roHMoS9sBLFvuzvA6H2ERVO7M7XjOnH4HgUEjOzkGqDPZF0C8K6oWL3cM5cODSfHIJUW9OO5lPLuHdXbkvqGtIzuk4N07qS1cMUfesPQTuUhB/b+HgCuZ4+gyUqDCFSsFTK2yiok0u7BZ1bQkwX5AizmMG1pI5ExZq1w2APnkOHZpcZOnJiACgKzpDv6I58fgLWW/c2lhaMXYI/S2sr/JtnQog8jKaxrTXxObAEToi18Q73YNbZAAsBKoh9DfwTnsJWVMAZYbtTkvnkQFIVbauzYEGoJaAFoO8A1+67vALrO69ITrECmmCQH0V+rtoNF0BQDfOmWEI8mKnRSgfNAD2IG+tpFtcI+ZNnwFA5+DuqQgfZ/PiuVW8DiOERyv31mpdhadxaU/PGMXDelIAKQQiM8pdUu9xcZFRiJfdW+berFexvk3WeH1gahYmk/micxDmRttZtcHP81+Yz5JKfc+vkZnSihBP4FEFrRZIzYnhjZw0jDUvG11SAJAZjIMB5sBr73VnRQEYUQiN0B5w5y58LXXggvIyQplAx13yTrutAIple2eMvENDL7IuvfkGIAXfgp9nAApNtxHuQsU6zJ7UTZpMno3a6klzsV1fajfnLRz2jqlGAJUveWfMUABdaC/DkW29aHSpaqR8+A0lg0JHhmesKKG1lBZ6+w4ltZNaZn8rAlR9aaOipIZXU6/Hy++oZquqEzMmutwrhzrMiU7M3KEEa2BZpbdaNwUQLfRW66EAbOYuyoXvGau3DkAA0DuMEQo3ucJwxBLdjh1KI6t9cOeP7vTUAKP9JkbkQ82WV3FRtWoOu8R9/i1WPjdMyrUWDq5xKj9pvnY09BhqGBg1GnbG1JueuwEqhyWXJuW8zJjMbqi1GZXtdNahXYO73XLogbqo3jauoe9Q8D4Ym5ExR16yTmX3OdxpzmobwdK6ZK6SzCFfO7gO0wBiUAare+d8UwGYJyxKTjrnAHxbhwLwpLsq43uD0DuSqD1QC3POeYdGl8WTl7KmkE1TUZK6hFhJn9jX6KmY0OhCYTRj90J0vXyAnPqiN65zYKJ2tXGdC8rrDN09HZmAaT5tj+uoyLxaVc6hcfvDVB+3szLuSRMIV71osY+LOzL6CN1uF2GAUDbYK9ZVjuDS+EQSJrpidjsP8Bmh18D7GimcWTWG2wtGuufQgGnPmMs3CicF5f2ierOo09R5nIjxVm384s76FWYo9AvuvZRr9ITO684KaJyv26FioPEciF1D3ztP8fL6oKQAStntpuMd28QwS2w99lvOjyT3oXEQwQDaDT1QWne4cY0jrDtkTVpHL2uHXgNvxaf5A6Fs0JQntgM19eMaD45ZoUyqMSObOwxSLZj5MSWg0wEKGvYZXPx2kb0K7XEGoHeIw2PbRfYq6+Sle3HwOx9IzyEjXzJNqjNFON3VQgt4S+hPt9A/5Jab4ktRWrnZv4bRlu1i3FTRYrKW8KRjNLQl7lXuYWQWF6OUHIZybYy/G2+V3FLlyl6j0pJBqBxhznHc1OIbp7vqg4i+JYR9H9LzJkQuevJilFIJo5pZ1Wctnais6bOGNSt3DmVluJWr7sNwOifVuD86auoiOqF8uN5qDl9rozCkrfJscA1dVx6C6wKXFUC6KIf2+8o2Ibcwo62gIcyhur0Wnr+cwjzxzFWPoTK8ssb2uj75hYSBgxJmFtYLfVpezPujvp7aw0knjimFqevlchqXWP+yMYPbgg9dNjoZLXR7eN0S+W5Jg+NlcVajqpnyYZNszCUCagAMmSbNQvs0ciIkVUv8fNw5O3s6onZiYtyj83Jwg5s3spKqwhVv5h1K3XDhzqHZ1GH1Wm6ey6uyxHOmvPtS3qFhrbd33XQF4DvEC1Q5WRRaRO+Ff2/fQV668FSDEYYRF241Cva/ZGSS3o08FIAfj4jizeOOZ4iAFq4KGPHzGhvLOEbVuToGIO/wPirlBuCWr741sJwvaFjoBrz3E78GhBbIzHMTeih2ydyf3JNG3jJ3QLcZZs8PHoIbviuSebKbO15hbjvOc1laqpi5BbKG6UOZW9drfjXdHozi/dsUDwDkGi0cHJfuuhsjosGlWTk+UkNy4p8I6ArAgUhx4H7jMvCk9Wi5oniH+mavC6fQnlq4XLhjMnwAoPDIzPClh4JR6BU+VpGxzj9+GCJz4U5WEp0TN3tVtT054YDNHL56YgD0HGYoxEcKYEpaG9zwgdz0SRUxHoHzA/2MDFFDP2MpX8Oofo0VNTglxj01qfzAggP3lPUzPlQZW0PB8eCoU9GijIt5d6HRgufrtxUGfaI/4sX3+pkmnD4RJqU0jNj2EcZkY3mSGX35+5xBHzWMQ8aJ7iMMDClYOTR2+MABytss4RsN2Ehj3HEIs+Po8dIwZ+aqoRK+DoLZ/NU1dJEx1LTCnAr+cId3OTRZT5Z+h+a8hPrH23WrrieTNzUPya1we2mC7eLvL/XR0tUYXakN5QDE3mrzEjr73lmn+4kDa7fS/IuvZKVQv5xQ4PaOG0SBrB2GvieMxe1Q5ZA46/Wt3z28XG//cf/I4k+ffvnl6zcaH/9//Sij/dPXDzrW7/8L);lineShape=1;shadow=0;sketch=0;" parent="j7MEoMGdVYFttDoIU8RG-56" vertex="1">
          <mxGeometry x="18.25000000000003" y="17.27272727272727" width="8.65" height="60.454545454545446" as="geometry" />
        </mxCell>
        <mxCell id="j7MEoMGdVYFttDoIU8RG-2" value="" style="group" parent="1" vertex="1" connectable="0">
          <mxGeometry x="195" y="840" width="120" height="80" as="geometry" />
        </mxCell>
        <mxCell id="j7MEoMGdVYFttDoIU8RG-3" value="" style="rounded=0;whiteSpace=wrap;html=1;fillColor=#dae8fc;strokeColor=#6c8ebf;" parent="j7MEoMGdVYFttDoIU8RG-2" vertex="1">
          <mxGeometry width="119.99999999999999" height="80" as="geometry" />
        </mxCell>
        <mxCell id="j7MEoMGdVYFttDoIU8RG-5" value="" style="rounded=1;whiteSpace=wrap;html=1;fillColor=#6C8EBF;strokeColor=#415573;" parent="1" vertex="1">
          <mxGeometry x="355" y="530" width="80" height="60" as="geometry" />
        </mxCell>
        <mxCell id="j7MEoMGdVYFttDoIU8RG-6" style="edgeStyle=orthogonalEdgeStyle;rounded=0;orthogonalLoop=1;jettySize=auto;html=1;exitX=1;exitY=0.5;exitDx=0;exitDy=0;entryX=0;entryY=0.5;entryDx=0;entryDy=0;" parent="1" source="j7MEoMGdVYFttDoIU8RG-7" target="j7MEoMGdVYFttDoIU8RG-9" edge="1">
          <mxGeometry relative="1" as="geometry" />
        </mxCell>
        <mxCell id="j7MEoMGdVYFttDoIU8RG-7" value="" style="rounded=1;whiteSpace=wrap;html=1;flipH=1;fillColor=#6C8EBF;strokeColor=#415573;" parent="1" vertex="1">
          <mxGeometry x="355" y="610" width="80" height="60" as="geometry" />
        </mxCell>
        <mxCell id="j7MEoMGdVYFttDoIU8RG-8" style="edgeStyle=orthogonalEdgeStyle;rounded=0;orthogonalLoop=1;jettySize=auto;html=1;exitX=1;exitY=0.5;exitDx=0;exitDy=0;entryX=0;entryY=0.5;entryDx=0;entryDy=0;" parent="1" source="j7MEoMGdVYFttDoIU8RG-9" target="j7MEoMGdVYFttDoIU8RG-10" edge="1">
          <mxGeometry relative="1" as="geometry" />
        </mxCell>
        <mxCell id="j7MEoMGdVYFttDoIU8RG-9" value="" style="rounded=1;whiteSpace=wrap;html=1;flipH=1;fillColor=#6C8EBF;strokeColor=#415573;" parent="1" vertex="1">
          <mxGeometry x="475" y="610" width="80" height="60" as="geometry" />
        </mxCell>
        <mxCell id="j7MEoMGdVYFttDoIU8RG-29" value="" style="edgeStyle=orthogonalEdgeStyle;rounded=0;orthogonalLoop=1;jettySize=auto;html=1;" parent="1" source="j7MEoMGdVYFttDoIU8RG-10" target="j7MEoMGdVYFttDoIU8RG-27" edge="1">
          <mxGeometry relative="1" as="geometry" />
        </mxCell>
        <mxCell id="j7MEoMGdVYFttDoIU8RG-10" value="" style="rounded=1;whiteSpace=wrap;html=1;flipH=1;fillColor=#6C8EBF;strokeColor=#415573;" parent="1" vertex="1">
          <mxGeometry x="595" y="610" width="80" height="60" as="geometry" />
        </mxCell>
        <mxCell id="j7MEoMGdVYFttDoIU8RG-11" style="edgeStyle=orthogonalEdgeStyle;rounded=0;orthogonalLoop=1;jettySize=auto;html=1;exitX=1;exitY=0.5;exitDx=0;exitDy=0;entryX=0;entryY=0.5;entryDx=0;entryDy=0;" parent="1" edge="1">
          <mxGeometry relative="1" as="geometry">
            <mxPoint x="520" y="800" as="targetPoint" />
          </mxGeometry>
        </mxCell>
        <mxCell id="j7MEoMGdVYFttDoIU8RG-14" style="edgeStyle=orthogonalEdgeStyle;rounded=0;orthogonalLoop=1;jettySize=auto;html=1;exitX=1;exitY=0.5;exitDx=0;exitDy=0;entryX=0;entryY=0.5;entryDx=0;entryDy=0;" parent="1" source="j7MEoMGdVYFttDoIU8RG-15" target="j7MEoMGdVYFttDoIU8RG-5" edge="1">
          <mxGeometry relative="1" as="geometry" />
        </mxCell>
        <mxCell id="j7MEoMGdVYFttDoIU8RG-15" value="" style="rounded=0;whiteSpace=wrap;html=1;fillColor=#dae8fc;strokeColor=#6c8ebf;" parent="1" vertex="1">
          <mxGeometry x="195" y="520" width="120" height="80" as="geometry" />
        </mxCell>
        <mxCell id="j7MEoMGdVYFttDoIU8RG-17" value="" style="group;flipH=1;" parent="1" vertex="1" connectable="0">
          <mxGeometry x="195" y="600" width="120" height="80" as="geometry" />
        </mxCell>
        <mxCell id="j7MEoMGdVYFttDoIU8RG-18" value="" style="rounded=0;whiteSpace=wrap;html=1;fillColor=#dae8fc;strokeColor=#6c8ebf;" parent="j7MEoMGdVYFttDoIU8RG-17" vertex="1">
          <mxGeometry width="119.99999999999999" height="80" as="geometry" />
        </mxCell>
        <mxCell id="j7MEoMGdVYFttDoIU8RG-20" value="" style="rounded=0;whiteSpace=wrap;html=1;fillColor=#dae8fc;strokeColor=#6c8ebf;" parent="1" vertex="1">
          <mxGeometry x="195" y="680" width="120" height="80" as="geometry" />
        </mxCell>
        <mxCell id="j7MEoMGdVYFttDoIU8RG-21" value="" style="group" parent="1" vertex="1" connectable="0">
          <mxGeometry x="195" y="760" width="120" height="80" as="geometry" />
        </mxCell>
        <mxCell id="j7MEoMGdVYFttDoIU8RG-22" value="" style="rounded=0;whiteSpace=wrap;html=1;fillColor=#dae8fc;strokeColor=#6c8ebf;" parent="j7MEoMGdVYFttDoIU8RG-21" vertex="1">
          <mxGeometry width="119.99999999999999" height="80" as="geometry" />
        </mxCell>
        <mxCell id="j7MEoMGdVYFttDoIU8RG-24" style="edgeStyle=orthogonalEdgeStyle;rounded=0;orthogonalLoop=1;jettySize=auto;html=1;exitX=1;exitY=0.5;exitDx=0;exitDy=0;entryX=0;entryY=0.5;entryDx=0;entryDy=0;" parent="1" source="j7MEoMGdVYFttDoIU8RG-18" target="j7MEoMGdVYFttDoIU8RG-7" edge="1">
          <mxGeometry relative="1" as="geometry" />
        </mxCell>
        <mxCell id="j7MEoMGdVYFttDoIU8RG-27" value="" style="rounded=1;whiteSpace=wrap;html=1;flipH=1;fillColor=#6C8EBF;strokeColor=#415573;" parent="1" vertex="1">
          <mxGeometry x="715" y="610" width="80" height="60" as="geometry" />
        </mxCell>
        <mxCell id="j7MEoMGdVYFttDoIU8RG-31" value="" style="rounded=1;whiteSpace=wrap;html=1;flipH=1;fillColor=#6C8EBF;strokeColor=#415573;" parent="1" vertex="1">
          <mxGeometry x="355" y="690" width="80" height="60" as="geometry" />
        </mxCell>
        <mxCell id="j7MEoMGdVYFttDoIU8RG-33" style="edgeStyle=orthogonalEdgeStyle;rounded=0;orthogonalLoop=1;jettySize=auto;html=1;exitX=1;exitY=0.5;exitDx=0;exitDy=0;entryX=0;entryY=0.5;entryDx=0;entryDy=0;" parent="1" target="j7MEoMGdVYFttDoIU8RG-31" edge="1">
          <mxGeometry relative="1" as="geometry">
            <mxPoint x="315" y="720" as="sourcePoint" />
          </mxGeometry>
        </mxCell>
        <mxCell id="j7MEoMGdVYFttDoIU8RG-34" style="edgeStyle=orthogonalEdgeStyle;rounded=0;orthogonalLoop=1;jettySize=auto;html=1;exitX=1;exitY=0.5;exitDx=0;exitDy=0;entryX=0;entryY=0.5;entryDx=0;entryDy=0;" parent="1" source="j7MEoMGdVYFttDoIU8RG-35" target="j7MEoMGdVYFttDoIU8RG-37" edge="1">
          <mxGeometry relative="1" as="geometry" />
        </mxCell>
        <mxCell id="j7MEoMGdVYFttDoIU8RG-35" value="" style="rounded=1;whiteSpace=wrap;html=1;flipH=1;fillColor=#6C8EBF;strokeColor=#415573;" parent="1" vertex="1">
          <mxGeometry x="355" y="770" width="80" height="60" as="geometry" />
        </mxCell>
        <mxCell id="j7MEoMGdVYFttDoIU8RG-36" style="edgeStyle=orthogonalEdgeStyle;rounded=0;orthogonalLoop=1;jettySize=auto;html=1;exitX=1;exitY=0.5;exitDx=0;exitDy=0;entryX=0;entryY=0.5;entryDx=0;entryDy=0;" parent="1" source="j7MEoMGdVYFttDoIU8RG-37" target="j7MEoMGdVYFttDoIU8RG-38" edge="1">
          <mxGeometry relative="1" as="geometry" />
        </mxCell>
        <mxCell id="j7MEoMGdVYFttDoIU8RG-37" value="" style="rounded=1;whiteSpace=wrap;html=1;flipH=1;fillColor=#6C8EBF;strokeColor=#415573;" parent="1" vertex="1">
          <mxGeometry x="475" y="770" width="80" height="60" as="geometry" />
        </mxCell>
        <mxCell id="j7MEoMGdVYFttDoIU8RG-38" value="" style="rounded=1;whiteSpace=wrap;html=1;flipH=1;fillColor=#6C8EBF;strokeColor=#415573;" parent="1" vertex="1">
          <mxGeometry x="595" y="770" width="80" height="60" as="geometry" />
        </mxCell>
        <mxCell id="j7MEoMGdVYFttDoIU8RG-39" style="edgeStyle=orthogonalEdgeStyle;rounded=0;orthogonalLoop=1;jettySize=auto;html=1;exitX=1;exitY=0.5;exitDx=0;exitDy=0;entryX=0;entryY=0.5;entryDx=0;entryDy=0;" parent="1" target="j7MEoMGdVYFttDoIU8RG-35" edge="1">
          <mxGeometry relative="1" as="geometry">
            <mxPoint x="315" y="800" as="sourcePoint" />
          </mxGeometry>
        </mxCell>
        <mxCell id="j7MEoMGdVYFttDoIU8RG-44" style="edgeStyle=orthogonalEdgeStyle;rounded=0;orthogonalLoop=1;jettySize=auto;html=1;exitX=1;exitY=0.5;exitDx=0;exitDy=0;entryX=0;entryY=0.5;entryDx=0;entryDy=0;" parent="1" source="j7MEoMGdVYFttDoIU8RG-45" target="j7MEoMGdVYFttDoIU8RG-46" edge="1">
          <mxGeometry relative="1" as="geometry" />
        </mxCell>
        <mxCell id="j7MEoMGdVYFttDoIU8RG-45" value="" style="rounded=1;whiteSpace=wrap;html=1;flipH=1;fillColor=#6C8EBF;strokeColor=#415573;" parent="1" vertex="1">
          <mxGeometry x="355" y="850" width="80" height="60" as="geometry" />
        </mxCell>
        <mxCell id="j7MEoMGdVYFttDoIU8RG-46" value="" style="rounded=1;whiteSpace=wrap;html=1;flipH=1;fillColor=#6C8EBF;strokeColor=#415573;" parent="1" vertex="1">
          <mxGeometry x="475" y="850" width="80" height="60" as="geometry" />
        </mxCell>
        <mxCell id="j7MEoMGdVYFttDoIU8RG-47" style="edgeStyle=orthogonalEdgeStyle;rounded=0;orthogonalLoop=1;jettySize=auto;html=1;exitX=1;exitY=0.5;exitDx=0;exitDy=0;entryX=0;entryY=0.5;entryDx=0;entryDy=0;" parent="1" target="j7MEoMGdVYFttDoIU8RG-45" edge="1">
          <mxGeometry relative="1" as="geometry">
            <mxPoint x="315" y="880" as="sourcePoint" />
          </mxGeometry>
        </mxCell>
        <mxCell id="j7MEoMGdVYFttDoIU8RG-49" value="" style="group" parent="1" vertex="1" connectable="0">
          <mxGeometry x="28" y="518" width="80" height="95" as="geometry" />
        </mxCell>
        <mxCell id="j7MEoMGdVYFttDoIU8RG-48" value="&lt;font style=&quot;font-size: 18px;&quot;&gt;T0&lt;/font&gt;" style="ellipse;whiteSpace=wrap;html=1;fillColor=#d5e8d4;verticalAlign=top;strokeColor=#82b366;" parent="j7MEoMGdVYFttDoIU8RG-49" vertex="1">
          <mxGeometry width="80" height="95" as="geometry" />
        </mxCell>
        <mxCell id="j7MEoMGdVYFttDoIU8RG-1" value="" style="shape=stencil(lZ1J0hzHDYVPw21FzsNalu+hCFEWw7KooCQPtzdgunp46P4quJPpfH9XZSKBh7E+1O9+//mH3z5+KOn3P758/vvHf3368Y+fP9S/fCjl068/f/zy6Q/7rw/1+w/1u58+f/n4ty+f//z1x6//+7cffKX/1z8+/9P/wr+/4vY6dnVUSf/5+i/pGPl///DXr+t/+fTr4/p69PK0Ph+pwvp0tC7ra3m/fs2jLllPz7Pa0fR5doL1+SjtaX05/+Hl+jmPtWR9n7C+HT3Lenqeaduxn9bXo8D7jnXUKus77P/o55+7r1+03rbjeT/bkWF93/r37UBgP/tQeWjH7LC+HvP5ffuRYP+7ne+W9f8XqJfr21J57vg8rR/9WR7GkWl9OUaX9QPkoe5jPD/PPNKG9ePoQ9bj369Hm0/rF//9pM+/UP7t5/ezPOwjwf748UxZ3+jv1yMlWb/g+U2dddE/6SggEHkdrSpggMbK9gbPT5RNBgcATCMUBWzYIwM00YmmhOCQs91xeenbtr0GmFBWBdAv2LbOANhw711NPctpNsUCu2T3ZGYFVJKMfeypgE6iXVVVGGCB7rW7Np9tR2Zl1NKRAqDAI7VwOw3QSb2MYxUFLALsIBqmwEihlmMmBTR4h96PNhSwQJb6OjXoDTDxkUbQSQboIHwjKA0DLBA+s5pVtnUdhczmDDRknQL/GrBV7xmAFNm8KZUbYKOamUWZnQEGUZ12MokbdUmoNeY40lIAGVsjU6KMDUCiMQM7NXqX4RdWUvri/BF2aWU9aSNsRHhWIEgGGAzYz2rGdGEGg7LqUYcC6OAMoJzTdCsD8lDAoG0t59+7Afq5De/OYScFTDrpHc6B9ZLJUq4KuBDvJYB5yu+7C6S7NNEo2p3OWwF0p03NCFkydlVI85WTnD4AiJz0uK23K/WOn4uqNLtKms/sw8oK6PBILWg+A0yyouOo4sKYXqJfqKfkPABIVZqdrk0BDUSjTvViDDDhkWpT+lMz6lb7v2cAkGjYuYphNwBZILuQolsNgFTa+NKzaNSColGS8lYDECMzEyh8yQDIjHt46YoEKzJjA5D2Nmq+mgI2/MI+T+m23lQr6THV3ZUd1nHu4G39QB49zyN6WL/g7+8gdxMdPt9RkYqFitvYoNAMA5DL57RlKIB8dBdUAWwMUtmmrqkAumyuHpoCGpyCCUHaCiC5s1dMRQEUuGlZr7N7H+DNtGB8DEDcyhR3/IVKsR67KUMBHR7JPIHSFUCsYdz84AcAKYwRHF3bt0K8JMQPDEDSajSjBsCEg4sRxsbhAKOs+Vk0WsGY4WrK0w1A0rqGOlgGoHdY63ziG4ADDjvrfTBA5biz8JLGins3pUqt8SMNNW+NQ5nbSEAAUKx3L6UZdgcbAXY46X7Gjt4BxOIaeSIiY4AhSmByPH+rd2+ATr+w1P1pCyOmvktLAYMsbjChpqkK7dJQUmwAEm+XpeeD6wm1xi5KM/otZvEakE4jewNkdE7WVN1qADrp1dVv7Tdq89bRlch7Of2bd866WFEDUKRodr1AvaBhjx6ZmRjyBMZSG2cAdLC62od+kV8pId9QjwnnYDZOor+9naz3XTxNH6mdOaB3HllvCiBVadIvNs4Am/yloUqgf2tc8/5W7zwyif4aYLNHJmrGPNkKsuQ0uymAlIC5IkOkdWIcxwPSTQHkGTtXD7+wwSiWYOOcQcEu3UNVDwAKmnj65FkZ942s0qOYVQEUts9BGQ/jrZQ+6Uqwxk1Y3jqJz480bknX14CpIY3BSeWS1QKZWsBcRTvzBg8AiuN4qKorgLS3eSi6SxUNu7m1QkMHZ6LtxolbZgBMtWZ1XQ2AyY2uQXUDUJTFFFkKAHJ2XVXKLjFJ7CHgYIBMLs3WMKUBCnkoQXsPpqFmsuZSAN1pM4pzKoByRjMrSbTfpCs6m4b4vAyBg7lCTgxAnuLcSn8MsEA0jM0IqzRXEGPk7QWA2My6GagHAAmfUTgpRRkTd8m8LIlrGIA039rq+NnZ40tvDbUaABMDS5OuHgRnQF4KwATN0EyzueQU8FpNr+jkBP4Kht0EntK6c4dHymjY51BFNjNG4Y3ozmdVaf9CZVO+60kBdHB+5Z/PYVYs1HAjuxXQSPOFIIIBJhHdolpjNqxNMb9Q+NK8VYO9o6HiDhiAUg91q+NnPkumsH0/Ve8DoDGrTAGAwc1AsDwNS1yjK5txcSRWWVSRzYEHZyRRFJnpc3okj/NPBSAjG2rYDUCBwXyT/htgITnJ+bRoD4AJaiZksUwrUFhjqqK09RgLPXMx5/rFdUtNDeLiwswgFStjbiaEZhdHA7zMaiqAAhR2ZMJjVkFP2ktjZIsqXk4vyegKIKEwXi93zQAUiipdpcgAm7N24jmY+aJ6VM8LFgVgqrIrB1gNb3MNUcp1EQ3ImtAxKoSJhKZeqAHo+rep6RYDUG6zJ3UqDUC3uVe1n07nqCwqOAJGVOil3X4GAHk/d8r8AKDgr9cgCWDiIxkvkgCFAYgpmQGXML/TOeIxI2gNTt15MkQeaaOxMi0toajN9HBO9a8MgFysK+ve+WqXIoAukJ2DFPHtwj5iUGSbC0JHyPUbgO6D+/7yCxeR1hTqcivaK6eHUwFUxNdDBakBJhUiplBa3NAkttB7YAByyFrI6u6G0WIPazYFkI2rU9X9Zte7NiU+BqgEyEpMDECeQwk1eXtgSLCMUxAeABgdq2pQ9gUBzWrj9sSoTA75yj25BiHkjffE+FsO1WZ7MV8K9Gcvtg+nXryt31jT2oOS2Vix3YNsbyx8aaEMPnH5aDzlzVxJ00u+nqKy2lnjG4Trc9ggvAiniD2sx4Irjch6LpWk+sWBUblFyLFsLmJpmt/z9SwQ4Xl4vVQS+XqqhgzqmjMHQwMSm1tHRlB0Gz2eoR6Yrado29AU7uaKnaGev8szmNiQsPL16BFqx8XlhVQNxD9Qg9bdyKTKiwtPOrRoqHBzmr680FjUC1UCx9noShWN7VwI6LeuD6WDZgEoJOd9RqKBJm5QrhreNQCpFHOxJfK/B+roHMoS9sBLFvuzvA6H2ERVO7M7XjOnH4HgUEjOzkGqDPZF0C8K6oWL3cM5cODSfHIJUW9OO5lPLuHdXbkvqGtIzuk4N07qS1cMUfesPQTuUhB/b+HgCuZ4+gyUqDCFSsFTK2yiok0u7BZ1bQkwX5AizmMG1pI5ExZq1w2APnkOHZpcZOnJiACgKzpDv6I58fgLWW/c2lhaMXYI/S2sr/JtnQog8jKaxrTXxObAEToi18Q73YNbZAAsBKoh9DfwTnsJWVMAZYbtTkvnkQFIVbauzYEGoJaAFoO8A1+67vALrO69ITrECmmCQH0V+rtoNF0BQDfOmWEI8mKnRSgfNAD2IG+tpFtcI+ZNnwFA5+DuqQgfZ/PiuVW8DiOERyv31mpdhadxaU/PGMXDelIAKQQiM8pdUu9xcZFRiJfdW+berFexvk3WeH1gahYmk/micxDmRttZtcHP81+Yz5JKfc+vkZnSihBP4FEFrRZIzYnhjZw0jDUvG11SAJAZjIMB5sBr73VnRQEYUQiN0B5w5y58LXXggvIyQplAx13yTrutAIple2eMvENDL7IuvfkGIAXfgp9nAApNtxHuQsU6zJ7UTZpMno3a6klzsV1fajfnLRz2jqlGAJUveWfMUABdaC/DkW29aHSpaqR8+A0lg0JHhmesKKG1lBZ6+w4ltZNaZn8rAlR9aaOipIZXU6/Hy++oZquqEzMmutwrhzrMiU7M3KEEa2BZpbdaNwUQLfRW66EAbOYuyoXvGau3DkAA0DuMEQo3ucJwxBLdjh1KI6t9cOeP7vTUAKP9JkbkQ82WV3FRtWoOu8R9/i1WPjdMyrUWDq5xKj9pvnY09BhqGBg1GnbG1JueuwEqhyWXJuW8zJjMbqi1GZXtdNahXYO73XLogbqo3jauoe9Q8D4Ym5ExR16yTmX3OdxpzmobwdK6ZK6SzCFfO7gO0wBiUAare+d8UwGYJyxKTjrnAHxbhwLwpLsq43uD0DuSqD1QC3POeYdGl8WTl7KmkE1TUZK6hFhJn9jX6KmY0OhCYTRj90J0vXyAnPqiN65zYKJ2tXGdC8rrDN09HZmAaT5tj+uoyLxaVc6hcfvDVB+3szLuSRMIV71osY+LOzL6CN1uF2GAUDbYK9ZVjuDS+EQSJrpidjsP8Bmh18D7GimcWTWG2wtGuufQgGnPmMs3CicF5f2ierOo09R5nIjxVm384s76FWYo9AvuvZRr9ITO684KaJyv26FioPEciF1D3ztP8fL6oKQAStntpuMd28QwS2w99lvOjyT3oXEQwQDaDT1QWne4cY0jrDtkTVpHL2uHXgNvxaf5A6Fs0JQntgM19eMaD45ZoUyqMSObOwxSLZj5MSWg0wEKGvYZXPx2kb0K7XEGoHeIw2PbRfYq6+Sle3HwOx9IzyEjXzJNqjNFON3VQgt4S+hPt9A/5Jab4ktRWrnZv4bRlu1i3FTRYrKW8KRjNLQl7lXuYWQWF6OUHIZybYy/G2+V3FLlyl6j0pJBqBxhznHc1OIbp7vqg4i+JYR9H9LzJkQuevJilFIJo5pZ1Wctnais6bOGNSt3DmVluJWr7sNwOifVuD86auoiOqF8uN5qDl9rozCkrfJscA1dVx6C6wKXFUC6KIf2+8o2Ibcwo62gIcyhur0Wnr+cwjzxzFWPoTK8ssb2uj75hYSBgxJmFtYLfVpezPujvp7aw0knjimFqevlchqXWP+yMYPbgg9dNjoZLXR7eN0S+W5Jg+NlcVajqpnyYZNszCUCagAMmSbNQvs0ciIkVUv8fNw5O3s6onZiYtyj83Jwg5s3spKqwhVv5h1K3XDhzqHZ1GH1Wm6ey6uyxHOmvPtS3qFhrbd33XQF4DvEC1Q5WRRaRO+Ff2/fQV668FSDEYYRF241Cva/ZGSS3o08FIAfj4jizeOOZ4iAFq4KGPHzGhvLOEbVuToGIO/wPirlBuCWr741sJwvaFjoBrz3E78GhBbIzHMTeih2ydyf3JNG3jJ3QLcZZs8PHoIbviuSebKbO15hbjvOc1laqpi5BbKG6UOZW9drfjXdHozi/dsUDwDkGi0cHJfuuhsjosGlWTk+UkNy4p8I6ArAgUhx4H7jMvCk9Wi5oniH+mavC6fQnlq4XLhjMnwAoPDIzPClh4JR6BU+VpGxzj9+GCJz4U5WEp0TN3tVtT054YDNHL56YgD0HGYoxEcKYEpaG9zwgdz0SRUxHoHzA/2MDFFDP2MpX8Oofo0VNTglxj01qfzAggP3lPUzPlQZW0PB8eCoU9GijIt5d6HRgufrtxUGfaI/4sX3+pkmnD4RJqU0jNj2EcZkY3mSGX35+5xBHzWMQ8aJ7iMMDClYOTR2+MABytss4RsN2Ehj3HEIs+Po8dIwZ+aqoRK+DoLZ/NU1dJEx1LTCnAr+cId3OTRZT5Z+h+a8hPrH23WrrieTNzUPya1we2mC7eLvL/XR0tUYXakN5QDE3mrzEjr73lmn+4kDa7fS/IuvZKVQv5xQ4PaOG0SBrB2GvieMxe1Q5ZA46/Wt3z28XG//cf/I4k+ffvnl6zcaH/9//Sij/dPXDzrW7/8L);lineShape=1;shadow=0;sketch=0;" parent="j7MEoMGdVYFttDoIU8RG-49" vertex="1">
          <mxGeometry x="18.25000000000003" y="17.27272727272727" width="8.65" height="60.454545454545446" as="geometry" />
        </mxCell>
        <mxCell id="j7MEoMGdVYFttDoIU8RG-50" value="" style="group" parent="1" vertex="1" connectable="0">
          <mxGeometry x="28" y="824" width="80" height="95" as="geometry" />
        </mxCell>
        <mxCell id="j7MEoMGdVYFttDoIU8RG-52" value="&lt;font style=&quot;font-size: 18px;&quot;&gt;T3&lt;/font&gt;" style="ellipse;whiteSpace=wrap;html=1;fillColor=#d5e8d4;verticalAlign=top;strokeColor=#82b366;" parent="j7MEoMGdVYFttDoIU8RG-50" vertex="1">
          <mxGeometry y="-0.8636363636363635" width="80" height="95" as="geometry" />
        </mxCell>
        <mxCell id="j7MEoMGdVYFttDoIU8RG-51" value="" style="shape=stencil(lZ1J0hzHDYVPw21FzsNalu+hCFEWw7KooCQPtzdgunp46P4quJPpfH9XZSKBh7E+1O9+//mH3z5+KOn3P758/vvHf3368Y+fP9S/fCjl068/f/zy6Q/7rw/1+w/1u58+f/n4ty+f//z1x6//+7cffKX/1z8+/9P/wr+/4vY6dnVUSf/5+i/pGPl///DXr+t/+fTr4/p69PK0Ph+pwvp0tC7ra3m/fs2jLllPz7Pa0fR5doL1+SjtaX05/+Hl+jmPtWR9n7C+HT3Lenqeaduxn9bXo8D7jnXUKus77P/o55+7r1+03rbjeT/bkWF93/r37UBgP/tQeWjH7LC+HvP5ffuRYP+7ne+W9f8XqJfr21J57vg8rR/9WR7GkWl9OUaX9QPkoe5jPD/PPNKG9ePoQ9bj369Hm0/rF//9pM+/UP7t5/ezPOwjwf748UxZ3+jv1yMlWb/g+U2dddE/6SggEHkdrSpggMbK9gbPT5RNBgcATCMUBWzYIwM00YmmhOCQs91xeenbtr0GmFBWBdAv2LbOANhw711NPctpNsUCu2T3ZGYFVJKMfeypgE6iXVVVGGCB7rW7Np9tR2Zl1NKRAqDAI7VwOw3QSb2MYxUFLALsIBqmwEihlmMmBTR4h96PNhSwQJb6OjXoDTDxkUbQSQboIHwjKA0DLBA+s5pVtnUdhczmDDRknQL/GrBV7xmAFNm8KZUbYKOamUWZnQEGUZ12MokbdUmoNeY40lIAGVsjU6KMDUCiMQM7NXqX4RdWUvri/BF2aWU9aSNsRHhWIEgGGAzYz2rGdGEGg7LqUYcC6OAMoJzTdCsD8lDAoG0t59+7Afq5De/OYScFTDrpHc6B9ZLJUq4KuBDvJYB5yu+7C6S7NNEo2p3OWwF0p03NCFkydlVI85WTnD4AiJz0uK23K/WOn4uqNLtKms/sw8oK6PBILWg+A0yyouOo4sKYXqJfqKfkPABIVZqdrk0BDUSjTvViDDDhkWpT+lMz6lb7v2cAkGjYuYphNwBZILuQolsNgFTa+NKzaNSColGS8lYDECMzEyh8yQDIjHt46YoEKzJjA5D2Nmq+mgI2/MI+T+m23lQr6THV3ZUd1nHu4G39QB49zyN6WL/g7+8gdxMdPt9RkYqFitvYoNAMA5DL57RlKIB8dBdUAWwMUtmmrqkAumyuHpoCGpyCCUHaCiC5s1dMRQEUuGlZr7N7H+DNtGB8DEDcyhR3/IVKsR67KUMBHR7JPIHSFUCsYdz84AcAKYwRHF3bt0K8JMQPDEDSajSjBsCEg4sRxsbhAKOs+Vk0WsGY4WrK0w1A0rqGOlgGoHdY63ziG4ADDjvrfTBA5biz8JLGins3pUqt8SMNNW+NQ5nbSEAAUKx3L6UZdgcbAXY46X7Gjt4BxOIaeSIiY4AhSmByPH+rd2+ATr+w1P1pCyOmvktLAYMsbjChpqkK7dJQUmwAEm+XpeeD6wm1xi5KM/otZvEakE4jewNkdE7WVN1qADrp1dVv7Tdq89bRlch7Of2bd866WFEDUKRodr1AvaBhjx6ZmRjyBMZSG2cAdLC62od+kV8pId9QjwnnYDZOor+9naz3XTxNH6mdOaB3HllvCiBVadIvNs4Am/yloUqgf2tc8/5W7zwyif4aYLNHJmrGPNkKsuQ0uymAlIC5IkOkdWIcxwPSTQHkGTtXD7+wwSiWYOOcQcEu3UNVDwAKmnj65FkZ942s0qOYVQEUts9BGQ/jrZQ+6Uqwxk1Y3jqJz480bknX14CpIY3BSeWS1QKZWsBcRTvzBg8AiuN4qKorgLS3eSi6SxUNu7m1QkMHZ6LtxolbZgBMtWZ1XQ2AyY2uQXUDUJTFFFkKAHJ2XVXKLjFJ7CHgYIBMLs3WMKUBCnkoQXsPpqFmsuZSAN1pM4pzKoByRjMrSbTfpCs6m4b4vAyBg7lCTgxAnuLcSn8MsEA0jM0IqzRXEGPk7QWA2My6GagHAAmfUTgpRRkTd8m8LIlrGIA039rq+NnZ40tvDbUaABMDS5OuHgRnQF4KwATN0EyzueQU8FpNr+jkBP4Kht0EntK6c4dHymjY51BFNjNG4Y3ozmdVaf9CZVO+60kBdHB+5Z/PYVYs1HAjuxXQSPOFIIIBJhHdolpjNqxNMb9Q+NK8VYO9o6HiDhiAUg91q+NnPkumsH0/Ve8DoDGrTAGAwc1AsDwNS1yjK5txcSRWWVSRzYEHZyRRFJnpc3okj/NPBSAjG2rYDUCBwXyT/htgITnJ+bRoD4AJaiZksUwrUFhjqqK09RgLPXMx5/rFdUtNDeLiwswgFStjbiaEZhdHA7zMaiqAAhR2ZMJjVkFP2ktjZIsqXk4vyegKIKEwXi93zQAUiipdpcgAm7N24jmY+aJ6VM8LFgVgqrIrB1gNb3MNUcp1EQ3ImtAxKoSJhKZeqAHo+rep6RYDUG6zJ3UqDUC3uVe1n07nqCwqOAJGVOil3X4GAHk/d8r8AKDgr9cgCWDiIxkvkgCFAYgpmQGXML/TOeIxI2gNTt15MkQeaaOxMi0toajN9HBO9a8MgFysK+ve+WqXIoAukJ2DFPHtwj5iUGSbC0JHyPUbgO6D+/7yCxeR1hTqcivaK6eHUwFUxNdDBakBJhUiplBa3NAkttB7YAByyFrI6u6G0WIPazYFkI2rU9X9Zte7NiU+BqgEyEpMDECeQwk1eXtgSLCMUxAeABgdq2pQ9gUBzWrj9sSoTA75yj25BiHkjffE+FsO1WZ7MV8K9Gcvtg+nXryt31jT2oOS2Vix3YNsbyx8aaEMPnH5aDzlzVxJ00u+nqKy2lnjG4Trc9ggvAiniD2sx4Irjch6LpWk+sWBUblFyLFsLmJpmt/z9SwQ4Xl4vVQS+XqqhgzqmjMHQwMSm1tHRlB0Gz2eoR6Yrado29AU7uaKnaGev8szmNiQsPL16BFqx8XlhVQNxD9Qg9bdyKTKiwtPOrRoqHBzmr680FjUC1UCx9noShWN7VwI6LeuD6WDZgEoJOd9RqKBJm5QrhreNQCpFHOxJfK/B+roHMoS9sBLFvuzvA6H2ERVO7M7XjOnH4HgUEjOzkGqDPZF0C8K6oWL3cM5cODSfHIJUW9OO5lPLuHdXbkvqGtIzuk4N07qS1cMUfesPQTuUhB/b+HgCuZ4+gyUqDCFSsFTK2yiok0u7BZ1bQkwX5AizmMG1pI5ExZq1w2APnkOHZpcZOnJiACgKzpDv6I58fgLWW/c2lhaMXYI/S2sr/JtnQog8jKaxrTXxObAEToi18Q73YNbZAAsBKoh9DfwTnsJWVMAZYbtTkvnkQFIVbauzYEGoJaAFoO8A1+67vALrO69ITrECmmCQH0V+rtoNF0BQDfOmWEI8mKnRSgfNAD2IG+tpFtcI+ZNnwFA5+DuqQgfZ/PiuVW8DiOERyv31mpdhadxaU/PGMXDelIAKQQiM8pdUu9xcZFRiJfdW+berFexvk3WeH1gahYmk/micxDmRttZtcHP81+Yz5JKfc+vkZnSihBP4FEFrRZIzYnhjZw0jDUvG11SAJAZjIMB5sBr73VnRQEYUQiN0B5w5y58LXXggvIyQplAx13yTrutAIple2eMvENDL7IuvfkGIAXfgp9nAApNtxHuQsU6zJ7UTZpMno3a6klzsV1fajfnLRz2jqlGAJUveWfMUABdaC/DkW29aHSpaqR8+A0lg0JHhmesKKG1lBZ6+w4ltZNaZn8rAlR9aaOipIZXU6/Hy++oZquqEzMmutwrhzrMiU7M3KEEa2BZpbdaNwUQLfRW66EAbOYuyoXvGau3DkAA0DuMEQo3ucJwxBLdjh1KI6t9cOeP7vTUAKP9JkbkQ82WV3FRtWoOu8R9/i1WPjdMyrUWDq5xKj9pvnY09BhqGBg1GnbG1JueuwEqhyWXJuW8zJjMbqi1GZXtdNahXYO73XLogbqo3jauoe9Q8D4Ym5ExR16yTmX3OdxpzmobwdK6ZK6SzCFfO7gO0wBiUAare+d8UwGYJyxKTjrnAHxbhwLwpLsq43uD0DuSqD1QC3POeYdGl8WTl7KmkE1TUZK6hFhJn9jX6KmY0OhCYTRj90J0vXyAnPqiN65zYKJ2tXGdC8rrDN09HZmAaT5tj+uoyLxaVc6hcfvDVB+3szLuSRMIV71osY+LOzL6CN1uF2GAUDbYK9ZVjuDS+EQSJrpidjsP8Bmh18D7GimcWTWG2wtGuufQgGnPmMs3CicF5f2ierOo09R5nIjxVm384s76FWYo9AvuvZRr9ITO684KaJyv26FioPEciF1D3ztP8fL6oKQAStntpuMd28QwS2w99lvOjyT3oXEQwQDaDT1QWne4cY0jrDtkTVpHL2uHXgNvxaf5A6Fs0JQntgM19eMaD45ZoUyqMSObOwxSLZj5MSWg0wEKGvYZXPx2kb0K7XEGoHeIw2PbRfYq6+Sle3HwOx9IzyEjXzJNqjNFON3VQgt4S+hPt9A/5Jab4ktRWrnZv4bRlu1i3FTRYrKW8KRjNLQl7lXuYWQWF6OUHIZybYy/G2+V3FLlyl6j0pJBqBxhznHc1OIbp7vqg4i+JYR9H9LzJkQuevJilFIJo5pZ1Wctnais6bOGNSt3DmVluJWr7sNwOifVuD86auoiOqF8uN5qDl9rozCkrfJscA1dVx6C6wKXFUC6KIf2+8o2Ibcwo62gIcyhur0Wnr+cwjzxzFWPoTK8ssb2uj75hYSBgxJmFtYLfVpezPujvp7aw0knjimFqevlchqXWP+yMYPbgg9dNjoZLXR7eN0S+W5Jg+NlcVajqpnyYZNszCUCagAMmSbNQvs0ciIkVUv8fNw5O3s6onZiYtyj83Jwg5s3spKqwhVv5h1K3XDhzqHZ1GH1Wm6ey6uyxHOmvPtS3qFhrbd33XQF4DvEC1Q5WRRaRO+Ff2/fQV668FSDEYYRF241Cva/ZGSS3o08FIAfj4jizeOOZ4iAFq4KGPHzGhvLOEbVuToGIO/wPirlBuCWr741sJwvaFjoBrz3E78GhBbIzHMTeih2ydyf3JNG3jJ3QLcZZs8PHoIbviuSebKbO15hbjvOc1laqpi5BbKG6UOZW9drfjXdHozi/dsUDwDkGi0cHJfuuhsjosGlWTk+UkNy4p8I6ArAgUhx4H7jMvCk9Wi5oniH+mavC6fQnlq4XLhjMnwAoPDIzPClh4JR6BU+VpGxzj9+GCJz4U5WEp0TN3tVtT054YDNHL56YgD0HGYoxEcKYEpaG9zwgdz0SRUxHoHzA/2MDFFDP2MpX8Oofo0VNTglxj01qfzAggP3lPUzPlQZW0PB8eCoU9GijIt5d6HRgufrtxUGfaI/4sX3+pkmnD4RJqU0jNj2EcZkY3mSGX35+5xBHzWMQ8aJ7iMMDClYOTR2+MABytss4RsN2Ehj3HEIs+Po8dIwZ+aqoRK+DoLZ/NU1dJEx1LTCnAr+cId3OTRZT5Z+h+a8hPrH23WrrieTNzUPya1we2mC7eLvL/XR0tUYXakN5QDE3mrzEjr73lmn+4kDa7fS/IuvZKVQv5xQ4PaOG0SBrB2GvieMxe1Q5ZA46/Wt3z28XG//cf/I4k+ffvnl6zcaH/9//Sij/dPXDzrW7/8L);lineShape=1;shadow=0;sketch=0;" parent="j7MEoMGdVYFttDoIU8RG-50" vertex="1">
          <mxGeometry x="18.25000000000003" y="17.27272727272727" width="8.65" height="60.454545454545446" as="geometry" />
        </mxCell>
        <mxCell id="j7MEoMGdVYFttDoIU8RG-53" value="" style="group" parent="1" vertex="1" connectable="0">
          <mxGeometry x="28" y="722" width="80" height="95" as="geometry" />
        </mxCell>
        <mxCell id="j7MEoMGdVYFttDoIU8RG-55" value="&lt;font style=&quot;font-size: 18px;&quot;&gt;T2&lt;/font&gt;" style="ellipse;whiteSpace=wrap;html=1;fillColor=#d5e8d4;verticalAlign=top;strokeColor=#82b366;" parent="j7MEoMGdVYFttDoIU8RG-53" vertex="1">
          <mxGeometry width="80" height="95" as="geometry" />
        </mxCell>
        <mxCell id="j7MEoMGdVYFttDoIU8RG-54" value="" style="shape=stencil(lZ1J0hzHDYVPw21FzsNalu+hCFEWw7KooCQPtzdgunp46P4quJPpfH9XZSKBh7E+1O9+//mH3z5+KOn3P758/vvHf3368Y+fP9S/fCjl068/f/zy6Q/7rw/1+w/1u58+f/n4ty+f//z1x6//+7cffKX/1z8+/9P/wr+/4vY6dnVUSf/5+i/pGPl///DXr+t/+fTr4/p69PK0Ph+pwvp0tC7ra3m/fs2jLllPz7Pa0fR5doL1+SjtaX05/+Hl+jmPtWR9n7C+HT3Lenqeaduxn9bXo8D7jnXUKus77P/o55+7r1+03rbjeT/bkWF93/r37UBgP/tQeWjH7LC+HvP5ffuRYP+7ne+W9f8XqJfr21J57vg8rR/9WR7GkWl9OUaX9QPkoe5jPD/PPNKG9ePoQ9bj369Hm0/rF//9pM+/UP7t5/ezPOwjwf748UxZ3+jv1yMlWb/g+U2dddE/6SggEHkdrSpggMbK9gbPT5RNBgcATCMUBWzYIwM00YmmhOCQs91xeenbtr0GmFBWBdAv2LbOANhw711NPctpNsUCu2T3ZGYFVJKMfeypgE6iXVVVGGCB7rW7Np9tR2Zl1NKRAqDAI7VwOw3QSb2MYxUFLALsIBqmwEihlmMmBTR4h96PNhSwQJb6OjXoDTDxkUbQSQboIHwjKA0DLBA+s5pVtnUdhczmDDRknQL/GrBV7xmAFNm8KZUbYKOamUWZnQEGUZ12MokbdUmoNeY40lIAGVsjU6KMDUCiMQM7NXqX4RdWUvri/BF2aWU9aSNsRHhWIEgGGAzYz2rGdGEGg7LqUYcC6OAMoJzTdCsD8lDAoG0t59+7Afq5De/OYScFTDrpHc6B9ZLJUq4KuBDvJYB5yu+7C6S7NNEo2p3OWwF0p03NCFkydlVI85WTnD4AiJz0uK23K/WOn4uqNLtKms/sw8oK6PBILWg+A0yyouOo4sKYXqJfqKfkPABIVZqdrk0BDUSjTvViDDDhkWpT+lMz6lb7v2cAkGjYuYphNwBZILuQolsNgFTa+NKzaNSColGS8lYDECMzEyh8yQDIjHt46YoEKzJjA5D2Nmq+mgI2/MI+T+m23lQr6THV3ZUd1nHu4G39QB49zyN6WL/g7+8gdxMdPt9RkYqFitvYoNAMA5DL57RlKIB8dBdUAWwMUtmmrqkAumyuHpoCGpyCCUHaCiC5s1dMRQEUuGlZr7N7H+DNtGB8DEDcyhR3/IVKsR67KUMBHR7JPIHSFUCsYdz84AcAKYwRHF3bt0K8JMQPDEDSajSjBsCEg4sRxsbhAKOs+Vk0WsGY4WrK0w1A0rqGOlgGoHdY63ziG4ADDjvrfTBA5biz8JLGins3pUqt8SMNNW+NQ5nbSEAAUKx3L6UZdgcbAXY46X7Gjt4BxOIaeSIiY4AhSmByPH+rd2+ATr+w1P1pCyOmvktLAYMsbjChpqkK7dJQUmwAEm+XpeeD6wm1xi5KM/otZvEakE4jewNkdE7WVN1qADrp1dVv7Tdq89bRlch7Of2bd866WFEDUKRodr1AvaBhjx6ZmRjyBMZSG2cAdLC62od+kV8pId9QjwnnYDZOor+9naz3XTxNH6mdOaB3HllvCiBVadIvNs4Am/yloUqgf2tc8/5W7zwyif4aYLNHJmrGPNkKsuQ0uymAlIC5IkOkdWIcxwPSTQHkGTtXD7+wwSiWYOOcQcEu3UNVDwAKmnj65FkZ942s0qOYVQEUts9BGQ/jrZQ+6Uqwxk1Y3jqJz480bknX14CpIY3BSeWS1QKZWsBcRTvzBg8AiuN4qKorgLS3eSi6SxUNu7m1QkMHZ6LtxolbZgBMtWZ1XQ2AyY2uQXUDUJTFFFkKAHJ2XVXKLjFJ7CHgYIBMLs3WMKUBCnkoQXsPpqFmsuZSAN1pM4pzKoByRjMrSbTfpCs6m4b4vAyBg7lCTgxAnuLcSn8MsEA0jM0IqzRXEGPk7QWA2My6GagHAAmfUTgpRRkTd8m8LIlrGIA039rq+NnZ40tvDbUaABMDS5OuHgRnQF4KwATN0EyzueQU8FpNr+jkBP4Kht0EntK6c4dHymjY51BFNjNG4Y3ozmdVaf9CZVO+60kBdHB+5Z/PYVYs1HAjuxXQSPOFIIIBJhHdolpjNqxNMb9Q+NK8VYO9o6HiDhiAUg91q+NnPkumsH0/Ve8DoDGrTAGAwc1AsDwNS1yjK5txcSRWWVSRzYEHZyRRFJnpc3okj/NPBSAjG2rYDUCBwXyT/htgITnJ+bRoD4AJaiZksUwrUFhjqqK09RgLPXMx5/rFdUtNDeLiwswgFStjbiaEZhdHA7zMaiqAAhR2ZMJjVkFP2ktjZIsqXk4vyegKIKEwXi93zQAUiipdpcgAm7N24jmY+aJ6VM8LFgVgqrIrB1gNb3MNUcp1EQ3ImtAxKoSJhKZeqAHo+rep6RYDUG6zJ3UqDUC3uVe1n07nqCwqOAJGVOil3X4GAHk/d8r8AKDgr9cgCWDiIxkvkgCFAYgpmQGXML/TOeIxI2gNTt15MkQeaaOxMi0toajN9HBO9a8MgFysK+ve+WqXIoAukJ2DFPHtwj5iUGSbC0JHyPUbgO6D+/7yCxeR1hTqcivaK6eHUwFUxNdDBakBJhUiplBa3NAkttB7YAByyFrI6u6G0WIPazYFkI2rU9X9Zte7NiU+BqgEyEpMDECeQwk1eXtgSLCMUxAeABgdq2pQ9gUBzWrj9sSoTA75yj25BiHkjffE+FsO1WZ7MV8K9Gcvtg+nXryt31jT2oOS2Vix3YNsbyx8aaEMPnH5aDzlzVxJ00u+nqKy2lnjG4Trc9ggvAiniD2sx4Irjch6LpWk+sWBUblFyLFsLmJpmt/z9SwQ4Xl4vVQS+XqqhgzqmjMHQwMSm1tHRlB0Gz2eoR6Yrado29AU7uaKnaGev8szmNiQsPL16BFqx8XlhVQNxD9Qg9bdyKTKiwtPOrRoqHBzmr680FjUC1UCx9noShWN7VwI6LeuD6WDZgEoJOd9RqKBJm5QrhreNQCpFHOxJfK/B+roHMoS9sBLFvuzvA6H2ERVO7M7XjOnH4HgUEjOzkGqDPZF0C8K6oWL3cM5cODSfHIJUW9OO5lPLuHdXbkvqGtIzuk4N07qS1cMUfesPQTuUhB/b+HgCuZ4+gyUqDCFSsFTK2yiok0u7BZ1bQkwX5AizmMG1pI5ExZq1w2APnkOHZpcZOnJiACgKzpDv6I58fgLWW/c2lhaMXYI/S2sr/JtnQog8jKaxrTXxObAEToi18Q73YNbZAAsBKoh9DfwTnsJWVMAZYbtTkvnkQFIVbauzYEGoJaAFoO8A1+67vALrO69ITrECmmCQH0V+rtoNF0BQDfOmWEI8mKnRSgfNAD2IG+tpFtcI+ZNnwFA5+DuqQgfZ/PiuVW8DiOERyv31mpdhadxaU/PGMXDelIAKQQiM8pdUu9xcZFRiJfdW+berFexvk3WeH1gahYmk/micxDmRttZtcHP81+Yz5JKfc+vkZnSihBP4FEFrRZIzYnhjZw0jDUvG11SAJAZjIMB5sBr73VnRQEYUQiN0B5w5y58LXXggvIyQplAx13yTrutAIple2eMvENDL7IuvfkGIAXfgp9nAApNtxHuQsU6zJ7UTZpMno3a6klzsV1fajfnLRz2jqlGAJUveWfMUABdaC/DkW29aHSpaqR8+A0lg0JHhmesKKG1lBZ6+w4ltZNaZn8rAlR9aaOipIZXU6/Hy++oZquqEzMmutwrhzrMiU7M3KEEa2BZpbdaNwUQLfRW66EAbOYuyoXvGau3DkAA0DuMEQo3ucJwxBLdjh1KI6t9cOeP7vTUAKP9JkbkQ82WV3FRtWoOu8R9/i1WPjdMyrUWDq5xKj9pvnY09BhqGBg1GnbG1JueuwEqhyWXJuW8zJjMbqi1GZXtdNahXYO73XLogbqo3jauoe9Q8D4Ym5ExR16yTmX3OdxpzmobwdK6ZK6SzCFfO7gO0wBiUAare+d8UwGYJyxKTjrnAHxbhwLwpLsq43uD0DuSqD1QC3POeYdGl8WTl7KmkE1TUZK6hFhJn9jX6KmY0OhCYTRj90J0vXyAnPqiN65zYKJ2tXGdC8rrDN09HZmAaT5tj+uoyLxaVc6hcfvDVB+3szLuSRMIV71osY+LOzL6CN1uF2GAUDbYK9ZVjuDS+EQSJrpidjsP8Bmh18D7GimcWTWG2wtGuufQgGnPmMs3CicF5f2ierOo09R5nIjxVm384s76FWYo9AvuvZRr9ITO684KaJyv26FioPEciF1D3ztP8fL6oKQAStntpuMd28QwS2w99lvOjyT3oXEQwQDaDT1QWne4cY0jrDtkTVpHL2uHXgNvxaf5A6Fs0JQntgM19eMaD45ZoUyqMSObOwxSLZj5MSWg0wEKGvYZXPx2kb0K7XEGoHeIw2PbRfYq6+Sle3HwOx9IzyEjXzJNqjNFON3VQgt4S+hPt9A/5Jab4ktRWrnZv4bRlu1i3FTRYrKW8KRjNLQl7lXuYWQWF6OUHIZybYy/G2+V3FLlyl6j0pJBqBxhznHc1OIbp7vqg4i+JYR9H9LzJkQuevJilFIJo5pZ1Wctnais6bOGNSt3DmVluJWr7sNwOifVuD86auoiOqF8uN5qDl9rozCkrfJscA1dVx6C6wKXFUC6KIf2+8o2Ibcwo62gIcyhur0Wnr+cwjzxzFWPoTK8ssb2uj75hYSBgxJmFtYLfVpezPujvp7aw0knjimFqevlchqXWP+yMYPbgg9dNjoZLXR7eN0S+W5Jg+NlcVajqpnyYZNszCUCagAMmSbNQvs0ciIkVUv8fNw5O3s6onZiYtyj83Jwg5s3spKqwhVv5h1K3XDhzqHZ1GH1Wm6ey6uyxHOmvPtS3qFhrbd33XQF4DvEC1Q5WRRaRO+Ff2/fQV668FSDEYYRF241Cva/ZGSS3o08FIAfj4jizeOOZ4iAFq4KGPHzGhvLOEbVuToGIO/wPirlBuCWr741sJwvaFjoBrz3E78GhBbIzHMTeih2ydyf3JNG3jJ3QLcZZs8PHoIbviuSebKbO15hbjvOc1laqpi5BbKG6UOZW9drfjXdHozi/dsUDwDkGi0cHJfuuhsjosGlWTk+UkNy4p8I6ArAgUhx4H7jMvCk9Wi5oniH+mavC6fQnlq4XLhjMnwAoPDIzPClh4JR6BU+VpGxzj9+GCJz4U5WEp0TN3tVtT054YDNHL56YgD0HGYoxEcKYEpaG9zwgdz0SRUxHoHzA/2MDFFDP2MpX8Oofo0VNTglxj01qfzAggP3lPUzPlQZW0PB8eCoU9GijIt5d6HRgufrtxUGfaI/4sX3+pkmnD4RJqU0jNj2EcZkY3mSGX35+5xBHzWMQ8aJ7iMMDClYOTR2+MABytss4RsN2Ehj3HEIs+Po8dIwZ+aqoRK+DoLZ/NU1dJEx1LTCnAr+cId3OTRZT5Z+h+a8hPrH23WrrieTNzUPya1we2mC7eLvL/XR0tUYXakN5QDE3mrzEjr73lmn+4kDa7fS/IuvZKVQv5xQ4PaOG0SBrB2GvieMxe1Q5ZA46/Wt3z28XG//cf/I4k+ffvnl6zcaH/9//Sij/dPXDzrW7/8L);lineShape=1;shadow=0;sketch=0;" parent="j7MEoMGdVYFttDoIU8RG-53" vertex="1">
          <mxGeometry x="18.25000000000003" y="17.27272727272727" width="8.65" height="60.454545454545446" as="geometry" />
        </mxCell>
        <mxCell id="j7MEoMGdVYFttDoIU8RG-60" value="" style="endArrow=none;html=1;fillColor=#647687;strokeColor=#314354;strokeWidth=3;exitX=1;exitY=0.5;exitDx=0;exitDy=0;startArrow=classic;startFill=1;endFill=0;sketch=1;curveFitting=1;jiggle=2;curved=1;" parent="1" source="j7MEoMGdVYFttDoIU8RG-48" target="j7MEoMGdVYFttDoIU8RG-61" edge="1">
          <mxGeometry width="50" height="50" relative="1" as="geometry">
            <mxPoint x="108" y="568" as="sourcePoint" />
            <mxPoint x="170" y="650" as="targetPoint" />
          </mxGeometry>
        </mxCell>
        <mxCell id="j7MEoMGdVYFttDoIU8RG-63" value="" style="endArrow=classic;html=1;fillColor=#647687;strokeColor=#314354;strokeWidth=3;exitX=1;exitY=0.5;exitDx=0;exitDy=0;startArrow=none;startFill=0;endFill=1;sketch=1;curveFitting=1;jiggle=2;curved=1;" parent="1" source="j7MEoMGdVYFttDoIU8RG-58" edge="1">
          <mxGeometry width="50" height="50" relative="1" as="geometry">
            <mxPoint x="108" y="670" as="sourcePoint" />
            <mxPoint x="170" y="514" as="targetPoint" />
          </mxGeometry>
        </mxCell>
        <mxCell id="j7MEoMGdVYFttDoIU8RG-65" value="" style="endArrow=classic;html=1;fillColor=#647687;strokeColor=#314354;strokeWidth=3;exitX=1;exitY=0.5;exitDx=0;exitDy=0;startArrow=none;startFill=0;endFill=1;sketch=1;curveFitting=1;jiggle=2;curved=1;" parent="1" source="j7MEoMGdVYFttDoIU8RG-55" target="j7MEoMGdVYFttDoIU8RG-61" edge="1">
          <mxGeometry width="50" height="50" relative="1" as="geometry">
            <mxPoint x="108" y="770" as="sourcePoint" />
            <mxPoint x="170" y="530" as="targetPoint" />
          </mxGeometry>
        </mxCell>
        <mxCell id="j7MEoMGdVYFttDoIU8RG-66" value="" style="endArrow=classic;html=1;fillColor=#647687;strokeColor=#314354;strokeWidth=3;exitX=1;exitY=0.5;exitDx=0;exitDy=0;startArrow=none;startFill=0;endFill=1;sketch=1;curveFitting=1;jiggle=2;curved=1;" parent="1" source="j7MEoMGdVYFttDoIU8RG-52" edge="1">
          <mxGeometry width="50" height="50" relative="1" as="geometry">
            <mxPoint x="108" y="870" as="sourcePoint" />
            <mxPoint x="190" y="514" as="targetPoint" />
          </mxGeometry>
        </mxCell>
        <mxCell id="j7MEoMGdVYFttDoIU8RG-61" value="" style="sketch=0;pointerEvents=1;shadow=0;dashed=0;html=1;strokeColor=none;fillColor=#9C9C9C;labelPosition=center;verticalLabelPosition=bottom;verticalAlign=top;outlineConnect=0;align=center;shape=mxgraph.office.security.lock_protected;gradientColor=default;" parent="1" vertex="1">
          <mxGeometry x="168.05" y="460" width="38" height="55" as="geometry" />
        </mxCell>
      </root>
    </mxGraphModel>
  </diagram>
</mxfile>
